<svg id="Layer_1" data-name="Layer 1" xmlns="http://www.w3.org/2000/svg" viewBox="0 0 233.75 143.83"><defs><style>.cls-1{fill:#747373;}</style></defs><title>Vector Smart Object</title><path class="cls-1" d="M62.35,183.16H57.44V168.3H38.32v14.87H33.42V149h4.91v14.87H57.44V149h4.91Z" transform="translate(-30.87 -148.58)"/><path class="cls-1" d="M95.13,153.43H80.67v10.31h14v4.41h-14v10.61H95.59v4.4H75.76V149H95.13Z" transform="translate(-30.87 -148.58)"/><path class="cls-1" d="M136.28,183.16h-5l-4.55-10.06H112.2l-4.3,10.06h-5l14.67-34.34H121ZM114.1,168.7h10.61l-5.51-12.36Z" transform="translate(-30.87 -148.58)"/><path class="cls-1" d="M171.51,153.43H159.7v29.73h-4.9V153.43H143V149h28.53Z" transform="translate(-30.87 -148.58)"/><path class="cls-1" d="M198.79,148.58c11.26,0,18.37,8,18.37,17.52,0,9.21-6.91,17.52-18.47,17.52-11.16,0-18.22-8.26-18.22-17.52C180.47,156.63,187.73,148.58,198.79,148.58Zm0,30.53c7.66,0,13.31-5.56,13.31-13s-5.66-13-13.31-13-13.27,5.51-13.27,13S191.19,179.11,198.79,179.11Z" transform="translate(-30.87 -148.58)"/><path class="cls-1" d="M260.61,183.16h-4.2l-22.83-26.28v26.28H229V149h3.9L256,175.45V149h4.61Z" transform="translate(-30.87 -148.58)"/><path class="cls-1" d="M61.3,209.54c-4.2-2.45-7.81-3.55-11.76-3.55-7.81,0-13.61,5.56-13.61,13.06s5.61,13,13.81,13a22.35,22.35,0,0,0,11.91-3.85v5.36a25,25,0,0,1-12.36,3c-12.81,0-18.42-9.86-18.42-17,0-10.41,7.86-18,18.72-18,3.5,0,7.06.85,11.71,2.8Z" transform="translate(-30.87 -148.58)"/><path class="cls-1" d="M92,201.48c11.26,0,18.37,8,18.37,17.52,0,9.21-6.91,17.52-18.47,17.52-11.16,0-18.22-8.26-18.22-17.52C73.66,209.54,80.92,201.48,92,201.48ZM92,232c7.66,0,13.31-5.56,13.31-13S99.64,206,92,206s-13.26,5.51-13.26,13S84.38,232,92,232Z" transform="translate(-30.87 -148.58)"/><path class="cls-1" d="M140.69,201.48c11.26,0,18.37,8,18.37,17.52,0,9.21-6.91,17.52-18.47,17.52-11.16,0-18.22-8.26-18.22-17.52C122.37,209.54,129.62,201.48,140.69,201.48Zm0,30.53c7.66,0,13.31-5.56,13.31-13s-5.66-13-13.31-13-13.27,5.51-13.27,13S133.08,232,140.69,232Z" transform="translate(-30.87 -148.58)"/><path class="cls-1" d="M183,201.93c7.46,0,10.86,4.41,10.86,9.81s-3.6,9.56-11.51,9.56h-5.1v14.77h-4.91V201.93Zm-5.76,15h5.56c3.65,0,6-2,6-5.36,0-2.5-1.35-5.21-5.81-5.21h-5.76Z" transform="translate(-30.87 -148.58)"/><path class="cls-1" d="M225,206.34H210.51v10.31h14v4.4h-14v10.61h14.92v4.41H205.61V201.93H225Z" transform="translate(-30.87 -148.58)"/><path class="cls-1" d="M246.85,201.93c6.91,0,11.21,3.65,11.21,9.56a8.54,8.54,0,0,1-5.71,8.36c3.1,2.05,5,5.21,7.61,9.46,1.45,2.35,2.3,3.5,4.66,6.76h-5.86l-4.5-7c-4.51-7-6.56-7.81-9.06-7.81h-2.05v14.82h-4.9V201.93Zm-3.71,14.92h3.15c5.26,0,6.76-2.7,6.71-5.56,0-3.2-2-5.16-6.71-5.16h-3.15Z" transform="translate(-30.87 -148.58)"/><path class="cls-1" d="M51.09,265.33a11.47,11.47,0,0,0-8-3.55c-3.15,0-5.41,1.65-5.41,4.05,0,6.56,14.77,6.46,14.77,17.32,0,5.36-4.05,9.26-9.56,9.26a15.05,15.05,0,0,1-9.56-3.15V283c2.5,3.2,5.66,5,9,5,3.8,0,5.56-2.4,5.56-4.3,0-7.06-14.77-7.86-14.77-17.22,0-5.55,4.1-9.11,10.36-9.11a13.66,13.66,0,0,1,7.61,2.4Z" transform="translate(-30.87 -148.58)"/><path class="cls-1" d="M94.43,262.22H82.62V292h-4.9V262.22H65.9v-4.41H94.43Z" transform="translate(-30.87 -148.58)"/><path class="cls-1" d="M138.73,278.54c0,8.36-5,13.86-15.17,13.86-7.21,0-14.22-4.05-14.22-13.36V257.82h4.91V278c0,3.86.5,5.46,2.05,7a10,10,0,0,0,7.36,2.9c3.75,0,6.46-1.2,8-2.75,1.75-1.75,2.15-4.25,2.15-7.46V257.82h4.91Z" transform="translate(-30.87 -148.58)"/><path class="cls-1" d="M156.55,257.82h13.26c12.61,0,18.17,9,18.17,17.07,0,8.76-6.86,17.07-18.12,17.07H156.55Zm4.91,29.73h7.81c11.11,0,13.66-8.46,13.66-12.66,0-6.86-4.35-12.66-13.91-12.66h-7.56Z" transform="translate(-30.87 -148.58)"/><path class="cls-1" d="M210,292H205.1V257.82H210Z" transform="translate(-30.87 -148.58)"/><path class="cls-1" d="M245.39,257.37c11.26,0,18.37,8,18.37,17.52,0,9.21-6.91,17.52-18.47,17.52-11.16,0-18.22-8.26-18.22-17.52C227.07,265.43,234.33,257.37,245.39,257.37Zm0,30.53c7.66,0,13.31-5.56,13.31-13s-5.66-13-13.31-13-13.26,5.51-13.26,13S237.79,287.9,245.39,287.9Z" transform="translate(-30.87 -148.58)"/></svg>